<svg width="30" height="30" viewBox="0 0 30 30" fill="none" xmlns="http://www.w3.org/2000/svg">
<rect x="0.5" y="0.5" width="29" height="29" rx="14.5" fill="#6548EE"/>
<path d="M8.46946 19.5V10.7727H10.3146V17.9787H14.0561V19.5H8.46946ZM15.2781 19.5V10.7727H18.7212C19.3832 10.7727 19.9471 10.8991 20.413 11.152C20.8789 11.402 21.234 11.75 21.4783 12.196C21.7255 12.6392 21.8491 13.1506 21.8491 13.7301C21.8491 14.3097 21.7241 14.821 21.4741 15.2642C21.2241 15.7074 20.8619 16.0526 20.3874 16.2997C19.9158 16.5469 19.3448 16.6705 18.6744 16.6705H16.4798V15.1918H18.3761C18.7312 15.1918 19.0238 15.1307 19.2539 15.0085C19.4869 14.8835 19.6602 14.7116 19.7738 14.4929C19.8903 14.2713 19.9485 14.017 19.9485 13.7301C19.9485 13.4403 19.8903 13.1875 19.7738 12.9716C19.6602 12.7528 19.4869 12.5838 19.2539 12.4645C19.021 12.3423 18.7255 12.2812 18.3675 12.2812H17.1232V19.5H15.2781Z" fill="white"/>
<rect x="0.5" y="0.5" width="29" height="29" rx="14.5" stroke="white"/>
</svg>
